<?xml version="1.0" encoding="UTF-8"?>
<svg version="1.1" xmlns="http://www.w3.org/2000/svg" width="316" height="433">
<path d="M0 0 C6.19385154 2.42245277 11.60683518 6.14261838 17.15625 9.76757812 C23.19937047 13.54139402 27.31908446 15.32648617 34.42578125 14.33984375 C35.16554199 14.25371826 35.90530273 14.16759277 36.66748047 14.07885742 C38.16710901 13.89160651 39.66505983 13.69036397 41.16088867 13.47485352 C50.72063343 12.11359203 57.04967793 12.35587973 65.30078125 17.71484375 C68.17522765 19.92494441 69.67599681 22.1445852 71.42578125 25.33984375 C73.30257602 27.78273695 75.20908875 30.19724682 77.42578125 32.33984375 C78.08578125 32.33984375 78.74578125 32.33984375 79.42578125 32.33984375 C79.48765625 32.93796875 79.54953125 33.53609375 79.61328125 34.15234375 C80.80204072 37.35285001 82.37365245 37.8196867 85.42578125 39.33984375 C88.47694543 40.25129666 91.5733785 40.93874887 94.67578125 41.65234375 C102.64840897 43.65041086 109.72534084 45.43230781 114.88671875 52.27734375 C119.22600737 59.8513748 120.83880994 68.8733586 122.8190918 77.30029297 C123.69543299 80.24635106 124.45245943 82.72701149 127.11328125 84.40234375 C129.07473114 85.19752614 131.06070226 85.93179791 133.05078125 86.65234375 C136.42578125 88.33984375 136.42578125 88.33984375 137.61328125 90.90234375 C137.88140625 91.70671875 138.14953125 92.51109375 138.42578125 93.33984375 C139.74985794 94.024711 141.08487366 94.68854578 142.42578125 95.33984375 C144.95181174 97.40524515 146.08165102 98.44695065 147.42578125 101.33984375 C147.86155571 106.14254503 147.47957759 110.85218577 147.11328125 115.65234375 C146.29099407 127.75519285 145.86273947 136.60625525 152.98828125 146.71484375 C156.97479757 152.54177057 159.45118036 157.05788246 158.42578125 164.33984375 C157.27055646 167.24658302 155.71157569 169.82081825 154.05078125 172.46484375 C153.22559902 173.81865835 152.40517851 175.17538828 151.58984375 176.53515625 C151.2232666 177.12312988 150.85668945 177.71110352 150.47900391 178.31689453 C147.72242643 183.61151692 147.18674514 188.30438726 147.40625 194.1875 C147.43639682 195.6946447 147.46566741 197.20180713 147.49414062 198.70898438 C147.5499786 201.06180473 147.61366557 203.41372184 147.69311523 205.76586914 C147.76582649 208.0523402 147.80689037 210.33770821 147.84375 212.625 C147.87583054 213.32407974 147.90791107 214.02315948 147.94096375 214.74342346 C147.98064767 218.5820612 147.5811552 220.15111101 145.1105957 223.15209961 C143.78161255 224.23503296 143.78161255 224.23503296 142.42578125 225.33984375 C141.84054687 225.83419922 141.2553125 226.32855469 140.65234375 226.83789062 C139.85957031 227.44213867 139.85957031 227.44213867 139.05078125 228.05859375 C138.16132812 228.74501953 138.16132812 228.74501953 137.25390625 229.4453125 C136.03515625 230.375 134.81640625 231.3046875 133.59765625 232.234375 C131.85402329 233.58000479 130.1369646 234.95328345 128.42578125 236.33984375 C127.5234375 237.06171875 126.62109375 237.78359375 125.69140625 238.52734375 C122.42501679 242.58217205 121.45187086 246.85211715 120.17578125 251.83984375 C119.92054688 252.77699219 119.6653125 253.71414062 119.40234375 254.6796875 C118.71563905 257.22772334 118.04677257 259.77501482 117.42578125 262.33984375 C117.23532227 263.08041016 117.04486328 263.82097656 116.84863281 264.58398438 C115.73112537 271.8671391 116.48331613 277.83509312 119.03125 284.703125 C119.30658569 285.48020813 119.58192139 286.25729126 119.86560059 287.05792236 C120.7680896 289.59442256 121.69044532 292.12318324 122.61328125 294.65234375 C123.25293816 296.43762973 123.8913473 298.22336323 124.52856445 300.00952148 C126.16264936 304.57905058 127.81338609 309.14235485 129.46972656 313.70385742 C130.94164249 317.76215066 132.40199605 321.82458863 133.86328125 325.88671875 C136.00195847 331.82456515 138.14506118 337.76079881 140.29296875 343.6953125 C140.55085175 344.40799789 140.80873474 345.12068329 141.07443237 345.85496521 C142.39792432 349.51008845 143.72562609 353.16361902 145.05957031 356.81494141 C146.38050581 360.43097116 147.69247537 364.05013952 148.9984436 367.67160034 C149.48532233 369.01623555 149.9756102 370.35964204 150.46957397 371.70169067 C151.14734873 373.54401501 151.81225131 375.3910595 152.4765625 377.23828125 C153.04370972 378.79554932 153.04370972 378.79554932 153.62231445 380.38427734 C154.47378483 383.51642576 154.64789511 386.10904328 154.42578125 389.33984375 C153.42578125 390.33984375 153.42578125 390.33984375 150.39428711 390.49804688 C146.09400424 390.32661757 142.13387258 389.66907514 137.9296875 388.80859375 C136.30273614 388.48957435 134.67578295 388.17056422 133.04882812 387.8515625 C130.51643219 387.34660457 127.98456172 386.83909662 125.45288086 386.33056641 C122.98800673 385.837831 120.52146289 385.35420602 118.0546875 384.87109375 C116.93556725 384.64141907 116.93556725 384.64141907 115.7938385 384.40710449 C110.90913822 383.45309601 106.39984511 383.28083113 101.42578125 383.33984375 C98.51953125 382.5 98.51953125 382.5 95.92578125 381.40234375 C90.53693939 379.29464139 85.89142419 378.15744149 80.05078125 378.46484375 C78.21177299 379.21800092 78.21177299 379.21800092 77.73046875 381.36328125 C75.81864212 385.72499351 72.88592991 389.13527555 69.92578125 392.83984375 C68.64548017 394.4619609 67.36553391 396.08435817 66.0859375 397.70703125 C65.4583252 398.49948242 64.83071289 399.29193359 64.18408203 400.10839844 C61.87721519 403.0360245 59.61982211 405.99825461 57.36328125 408.96484375 C42.73416037 428.03146463 42.73416037 428.03146463 38.42578125 432.33984375 C35.40848962 432.16302704 32.42346319 431.7198316 29.42578125 431.33984375 C29.19068848 430.48139862 28.9555957 429.62295349 28.71337891 428.73849487 C26.39655829 420.43483133 23.76262347 412.32323274 20.80078125 404.22265625 C20.37200684 403.04065643 19.94323242 401.85865662 19.50146484 400.64083862 C18.37560972 397.54220109 17.24514083 394.44529608 16.11303711 391.34893799 C15.19395403 388.82929539 14.28205311 386.30707832 13.37008667 383.78485298 C12.26835447 380.74157416 11.15923753 377.70099112 10.05078125 374.66015625 C9.64649902 373.54230743 9.2422168 372.42445862 8.82568359 371.2727356 C6.67707538 365.4165376 4.34641721 359.85354435 1.42578125 354.33984375 C0.43578125 354.33984375 -0.55421875 354.33984375 -1.57421875 354.33984375 C-1.95622437 355.43425781 -1.95622437 355.43425781 -2.34594727 356.55078125 C-7.92015865 372.48061136 -13.62737736 388.35911732 -19.51950073 404.17431641 C-20.1777819 405.94274474 -20.83399222 407.71194539 -21.48806763 409.48193359 C-22.41548947 411.98903196 -23.35111627 414.49291664 -24.2890625 416.99609375 C-24.56164886 417.73661987 -24.83423523 418.477146 -25.11508179 419.2401123 C-26.87569594 423.90161291 -28.86045334 428.14875229 -31.57421875 432.33984375 C-34.32421875 433.27734375 -34.32421875 433.27734375 -36.57421875 433.33984375 C-37.17234375 432.55609375 -37.77046875 431.77234375 -38.38671875 430.96484375 C-40.48507124 428.19410052 -40.48507124 428.19410052 -43.57421875 426.33984375 C-44.24088542 424.67317708 -44.90755208 423.00651042 -45.57421875 421.33984375 C-46.56421875 420.67984375 -47.55421875 420.01984375 -48.57421875 419.33984375 C-49.54790993 417.65445032 -50.51734768 415.96619573 -51.44921875 414.25732422 C-53.33252973 411.04735797 -55.70577743 408.26286824 -58.07421875 405.40234375 C-63.12351531 399.21646352 -67.95534606 392.90121873 -72.65234375 386.44360352 C-73.12285156 385.80479248 -73.59335938 385.16598145 -74.078125 384.5078125 C-74.48877197 383.94344482 -74.89941895 383.37907715 -75.32250977 382.79760742 C-76.69923885 381.06156228 -76.69923885 381.06156228 -79.57421875 379.33984375 C-90.19014927 378.93077223 -101.13866857 381.74212369 -111.51171875 383.71484375 C-113.16460477 384.02271996 -114.81759926 384.33001439 -116.47070312 384.63671875 C-124.85510051 386.20259591 -133.1934983 387.86035223 -141.49829102 389.81103516 C-147.80275599 390.89488873 -152.0191762 390.59157597 -157.57421875 387.33984375 C-157.27741714 386.76881927 -156.98061554 386.1977948 -156.67481995 385.60946655 C-155.62286519 383.4401608 -154.77380773 381.2955627 -153.96459961 379.02587891 C-153.65861847 378.17192032 -153.35263733 377.31796173 -153.03738403 376.43812561 C-152.70793793 375.51108322 -152.37849182 374.58404083 -152.0390625 373.62890625 C-151.31292359 371.60033582 -150.5867672 369.57177165 -149.8605957 367.54321289 C-149.47795563 366.47136749 -149.09531555 365.39952209 -148.70108032 364.29519653 C-141.04527413 342.85803557 -133.24230983 321.47835051 -125.32185364 300.13769531 C-124.67780838 298.40086999 -124.03502429 296.6635764 -123.39360046 294.92578125 C-121.80364859 290.62294086 -120.18966859 286.33172731 -118.53271484 282.05419922 C-118.20559006 281.19805527 -117.87846527 280.34191132 -117.54142761 279.45982361 C-116.92546291 277.84889576 -116.30070875 276.24128787 -115.66523743 274.63795471 C-113.40231953 268.67508226 -112.65204767 263.88679246 -114.88671875 257.71484375 C-116.42711569 254.41819212 -116.42711569 254.41819212 -118.26171875 251.96484375 C-119.68932317 249.10963492 -119.65401197 247.89254892 -119.51171875 244.77734375 C-119.36079613 241.007655 -119.36079613 241.007655 -121.44921875 237.77734375 C-123.42272206 236.15307396 -123.42272206 236.15307396 -125.57421875 236.33984375 C-126.91317507 234.67769107 -128.24552017 233.01020768 -129.57421875 231.33984375 C-131.82067786 229.37419203 -133.76587636 227.67773087 -136.52734375 226.5234375 C-140.95226646 223.96475128 -142.88535238 218.97734978 -144.57421875 214.33984375 C-145.26810139 208.19865818 -145.1342491 202.32200739 -143.57421875 196.33984375 C-142.56003808 187.53096026 -144.77333643 181.19625808 -148.57421875 173.33984375 C-149.5139197 171.39422302 -150.45097636 169.44752188 -151.38061523 167.49707031 C-151.99288562 166.21898558 -152.61552877 164.94579894 -153.25024414 163.67871094 C-155.26927909 159.51498201 -156.61974293 155.98836796 -156.57421875 151.33984375 C-155.16160768 148.20396594 -153.26335725 145.50187301 -151.26171875 142.71484375 C-150.24103821 141.24609087 -149.22399624 139.77480153 -148.2109375 138.30078125 C-147.75420654 137.65931152 -147.29747559 137.0178418 -146.8269043 136.35693359 C-143.98020061 131.77313592 -143.35245648 128.38565233 -143.703125 123.0078125 C-143.76822266 121.79673828 -143.83332031 120.58566406 -143.90039062 119.33789062 C-144.05723393 116.80895434 -144.21865093 114.28029734 -144.38476562 111.75195312 C-144.81852626 103.49297544 -144.97983227 97.40158464 -139.4453125 90.80078125 C-138.64222656 90.11242187 -137.83914062 89.4240625 -137.01171875 88.71484375 C-136.13 87.94785156 -135.24828125 87.18085937 -134.33984375 86.390625 C-131.70191743 84.43453557 -129.24332417 83.23692462 -126.26171875 81.90234375 C-121.80090377 79.41323696 -120.65395964 76.75295643 -119.2578125 72.05541992 C-117.96286528 67.04513476 -116.90583189 62.00362694 -115.89453125 56.9296875 C-114.78584607 51.95429166 -113.83801105 49.01212874 -109.76171875 45.77734375 C-105.58115008 43.14653381 -101.92726846 41.35352427 -96.88671875 41.32421875 C-89.07351827 41.20462895 -85.32687612 39.42952238 -79.8203125 33.87890625 C-76.53694859 30.16727748 -73.52379092 26.31850498 -70.57421875 22.33984375 C-69.52703413 21.01509212 -68.46538754 19.7015882 -67.38671875 18.40234375 C-66.93941406 17.85707031 -66.49210937 17.31179687 -66.03125 16.75 C-62.0267709 12.87435133 -57.78004961 13.02522409 -52.44921875 13.08984375 C-51.69020264 13.09298584 -50.93118652 13.09612793 -50.14916992 13.09936523 C-45.17775169 13.17198324 -40.55888832 13.65491789 -35.75 15 C-30.41184397 15.83378739 -26.40849511 13.94157832 -21.984375 11.14453125 C-20.4365332 10.19513672 -20.4365332 10.19513672 -18.85742188 9.2265625 C-16.70957344 7.8849713 -14.56632215 6.5359921 -12.42773438 5.1796875 C-4.66492446 0.44355019 -4.66492446 0.44355019 0 0 Z " fill="#FFD877" transform="translate(157.57421875,-0.33984375)"/>
<path d="M0 0 C0.66 0 1.32 0 2 0 C2.2475 0.78375 2.495 1.5675 2.75 2.375 C4.24062337 5.50530909 4.99419751 5.54003879 8 7 C10.52603049 9.0654014 11.65586977 10.1071069 13 13 C13.43577446 17.80270128 13.05379634 22.51234202 12.6875 27.3125 C11.86521282 39.4153491 11.43695822 48.2664115 18.5625 58.375 C22.54901632 64.20192682 25.02539911 68.71803871 24 76 C22.84477521 78.90673927 21.28579444 81.4809745 19.625 84.125 C18.79981777 85.4788146 17.97939726 86.83554453 17.1640625 88.1953125 C16.79748535 88.78328613 16.4309082 89.37125977 16.05322266 89.97705078 C13.29664518 95.27167317 12.76096389 99.96454351 12.98046875 105.84765625 C13.01061557 107.35480095 13.03988616 108.86196338 13.06835938 110.36914062 C13.12419735 112.72196098 13.18788432 115.07387809 13.26733398 117.42602539 C13.34004524 119.71249645 13.38110912 121.99786446 13.41796875 124.28515625 C13.46608955 125.33377586 13.46608955 125.33377586 13.5151825 126.40357971 C13.55486642 130.24221745 13.15537395 131.81126726 10.68481445 134.81225586 C9.3558313 135.89518921 9.3558313 135.89518921 8 137 C7.41476562 137.49435547 6.82953125 137.98871094 6.2265625 138.49804688 C5.43378906 139.10229492 5.43378906 139.10229492 4.625 139.71875 C3.73554687 140.40517578 3.73554687 140.40517578 2.828125 141.10546875 C1.609375 142.03515625 0.390625 142.96484375 -0.828125 143.89453125 C-2.57175796 145.24016104 -4.28881665 146.6134397 -6 148 C-6.90234375 148.721875 -7.8046875 149.44375 -8.734375 150.1875 C-12.00076446 154.2423283 -12.97391039 158.5122734 -14.25 163.5 C-14.50523437 164.43714844 -14.76046875 165.37429687 -15.0234375 166.33984375 C-15.7101422 168.88787959 -16.37900868 171.43517107 -17 174 C-17.19045898 174.74056641 -17.38091797 175.48113281 -17.57714844 176.24414062 C-18.69465588 183.52729535 -17.94246512 189.49524937 -15.39453125 196.36328125 C-15.11919556 197.14036438 -14.84385986 197.91744751 -14.56018066 198.71807861 C-13.65769165 201.25457881 -12.73533593 203.78333949 -11.8125 206.3125 C-11.17284309 208.09778598 -10.53443395 209.88351948 -9.8972168 211.66967773 C-8.26313189 216.23920683 -6.61239516 220.8025111 -4.95605469 225.36401367 C-3.48413876 229.42230691 -2.0237852 233.48474488 -0.5625 237.546875 C1.57617722 243.4847214 3.71927993 249.42095506 5.8671875 255.35546875 C6.1250705 256.06815414 6.38295349 256.78083954 6.64865112 257.51512146 C7.97214307 261.1702447 9.29984484 264.82377527 10.63378906 268.47509766 C11.95472456 272.09112741 13.26669412 275.71029577 14.57266235 279.33175659 C15.05954108 280.6763918 15.54982895 282.01979829 16.04379272 283.36184692 C16.72156748 285.20417126 17.38647006 287.05121575 18.05078125 288.8984375 C18.61792847 290.45570557 18.61792847 290.45570557 19.1965332 292.04443359 C20.04800358 295.17658201 20.22211386 297.76919953 20 301 C19 302 19 302 15.96850586 302.15820312 C11.66822299 301.98677382 7.70809133 301.32923139 3.50390625 300.46875 C1.87695489 300.1497306 0.2500017 299.83072047 -1.37695312 299.51171875 C-3.90934906 299.00676082 -6.44121953 298.49925287 -8.97290039 297.99072266 C-11.43777452 297.49798725 -13.90431836 297.01436227 -16.37109375 296.53125 C-17.490214 296.30157532 -17.490214 296.30157532 -18.63194275 296.06726074 C-23.51664303 295.11325226 -28.02593614 294.94098738 -33 295 C-35.90625 294.16015625 -35.90625 294.16015625 -38.5 293.0625 C-43.88884186 290.95479764 -48.53435706 289.81759774 -54.375 290.125 C-56.21400826 290.87815717 -56.21400826 290.87815717 -56.6953125 293.0234375 C-58.60713913 297.38514976 -61.53985134 300.7954318 -64.5 304.5 C-65.78030108 306.12211715 -67.06024734 307.74451442 -68.33984375 309.3671875 C-68.96745605 310.15963867 -69.59506836 310.95208984 -70.24169922 311.76855469 C-72.54856606 314.69618075 -74.80595914 317.65841086 -77.0625 320.625 C-91.69162088 339.69162088 -91.69162088 339.69162088 -96 344 C-99.01729163 343.82318329 -102.00231806 343.37998785 -105 343 C-105.23509277 342.14155487 -105.47018555 341.28310974 -105.71240234 340.39865112 C-108.02922296 332.09498758 -110.66315778 323.98338899 -113.625 315.8828125 C-114.05377441 314.70081268 -114.48254883 313.51881287 -114.92431641 312.30099487 C-116.05017153 309.20235734 -117.18064042 306.10545233 -118.31274414 303.00909424 C-119.23182722 300.48945164 -120.14372814 297.96723457 -121.05569458 295.44500923 C-122.15742678 292.40173041 -123.26654372 289.36114737 -124.375 286.3203125 C-124.77928223 285.20246368 -125.18356445 284.08461487 -125.60009766 282.93289185 C-127.74870587 277.07669385 -130.07936404 271.5137006 -133 266 C-133.99 266 -134.98 266 -136 266 C-136.38200562 267.09441406 -136.38200562 267.09441406 -136.77172852 268.2109375 C-142.3459399 284.14076761 -148.05315861 300.01927357 -153.94528198 315.83447266 C-154.60356315 317.60290099 -155.25977347 319.37210164 -155.91384888 321.14208984 C-156.84127072 323.64918821 -157.77689752 326.15307289 -158.71484375 328.65625 C-158.98743011 329.39677612 -159.26001648 330.13730225 -159.54086304 330.90026855 C-161.30147719 335.56176916 -163.28623459 339.80890854 -166 344 C-168.75 344.9375 -168.75 344.9375 -171 345 C-171.598125 344.21625 -172.19625 343.4325 -172.8125 342.625 C-174.91085249 339.85425677 -174.91085249 339.85425677 -178 338 C-178.66666667 336.33333333 -179.33333333 334.66666667 -180 333 C-180.99 332.34 -181.98 331.68 -183 331 C-183.97369118 329.31460657 -184.94312893 327.62635198 -185.875 325.91748047 C-187.75831098 322.70751422 -190.13155868 319.92302449 -192.5 317.0625 C-197.54929656 310.87661977 -202.38112731 304.56137498 -207.078125 298.10375977 C-207.54863281 297.46494873 -208.01914063 296.8261377 -208.50390625 296.16796875 C-208.91455322 295.60360107 -209.3252002 295.0392334 -209.74829102 294.45776367 C-211.1250201 292.72171853 -211.1250201 292.72171853 -214 291 C-224.61593052 290.59092848 -235.56444982 293.40227994 -245.9375 295.375 C-247.59038602 295.68287621 -249.24338051 295.99017064 -250.89648438 296.296875 C-259.28088176 297.86275216 -267.61927955 299.52050848 -275.92407227 301.47119141 C-282.22853724 302.55504498 -286.44495745 302.25173222 -292 299 C-291.70319839 298.42897552 -291.40639679 297.85795105 -291.1006012 297.2696228 C-290.04864644 295.10031705 -289.19958898 292.95571895 -288.39038086 290.68603516 C-288.08439972 289.83207657 -287.77841858 288.97811798 -287.46316528 288.09828186 C-287.13371918 287.17123947 -286.80427307 286.24419708 -286.46484375 285.2890625 C-285.73870484 283.26049207 -285.01254845 281.2319279 -284.28637695 279.20336914 C-283.90373688 278.13152374 -283.5210968 277.05967834 -283.12686157 275.95535278 C-274.84853539 252.77506238 -266.39198868 229.66379544 -257.81498718 206.5925293 C-256.20822574 202.26873448 -254.61070198 197.94184799 -253.02880859 193.60888672 C-252.71070724 192.73920761 -252.3926059 191.8695285 -252.06486511 190.97349548 C-251.46351147 189.32787231 -250.86403627 187.681561 -250.26679993 186.03443909 C-249.99788437 185.29918503 -249.72896881 184.56393097 -249.4519043 183.80639648 C-249.21884079 183.16540512 -248.98577728 182.52441376 -248.74565125 181.86399841 C-247.93842853 179.84608203 -246.99624578 177.93068283 -246 176 C-244.83597656 176.36351562 -244.83597656 176.36351562 -243.6484375 176.734375 C-242.56820312 177.06953125 -241.48796875 177.4046875 -240.375 177.75 C-239.19035156 178.12253906 -238.00570312 178.49507812 -236.78515625 178.87890625 C-234.33407135 179.60487257 -231.86160129 180.26346149 -229.37109375 180.83984375 C-216.60166658 183.8815185 -210.01921838 190.79757411 -202.88671875 201.51953125 C-200.41607326 204.76768836 -197.65732394 207.17133803 -194 209 C-188.56046328 209.40607653 -183.32221348 209.20261555 -178 208 C-170.20360048 206.30992282 -163.62802684 205.59963565 -156.54296875 209.80859375 C-154.74131264 210.99351397 -152.95608079 212.20375664 -151.1875 213.4375 C-149.39522363 214.65327575 -147.59719797 215.8606279 -145.79296875 217.05859375 C-145.0146167 217.59798584 -144.23626465 218.13737793 -143.43432617 218.69311523 C-140.50189225 220.26741257 -138.32871281 220.84122166 -135 221 C-132.28878458 219.97513252 -132.28878458 219.97513252 -129.7265625 218.25390625 C-128.25255981 217.36759521 -128.25255981 217.36759521 -126.7487793 216.46337891 C-125.71793213 215.83608887 -124.68708496 215.20879883 -123.625 214.5625 C-113.73181133 208.83435052 -106.43099724 205.85006409 -95 208 C-94.01 208.33 -93.02 208.66 -92 209 C-85.91991644 209.54222967 -79.84349567 210.03956983 -74.640625 206.453125 C-69.57040027 201.96235453 -65.4734265 196.65832209 -61.4375 191.25 C-57.15629731 185.79860191 -54.29005977 182.52233939 -47.2109375 181.3984375 C-45.09366896 181.14821264 -42.98945564 180.940769 -40.86157227 180.80688477 C-35.8282761 180.42213939 -32.82198882 179.30154779 -29 176 C-25.13365822 170.53307587 -23.56716492 164.73645941 -21.875 158.3125 C-21.37601272 156.4534525 -20.87353677 154.59533707 -20.3671875 152.73828125 C-20.15175293 151.92399658 -19.93631836 151.10971191 -19.71435547 150.27075195 C-18.03289437 144.92582042 -15.3899276 142.4545944 -10.9375 139.1875 C-10.35911377 138.74664062 -9.78072754 138.30578125 -9.18481445 137.8515625 C-6.55205598 135.85065147 -3.9163387 133.94571159 -1.140625 132.14453125 C3.33206543 129.27823449 3.33206543 129.27823449 5.58203125 124.69921875 C5.62723266 122.0569909 5.38568146 119.61318867 5 117 C4.64309252 113.66886347 4.31075468 110.33575728 4 107 C3.896875 106.00097656 3.79375 105.00195312 3.6875 103.97265625 C3.03602446 92.77542045 7.72222458 84.60017271 14 75.6875 C16.16919669 72.22694207 16.63178345 69.78240761 15.91015625 65.75390625 C13.20923405 57.58158799 8.97261571 49.58906144 3.9375 42.625 C1.01426688 38.09743355 1.93157034 34.07157196 3 29 C3.7966617 25.39135914 4.60012241 21.78940683 5.4765625 18.19921875 C6.31173594 13.09468856 5.29976298 10.02842582 2.4375 5.8125 C0 2.20113314 0 2.20113314 0 0 Z " fill="#FB345B" transform="translate(292,88)"/>
<path d="M0 0 C6.19385154 2.42245277 11.60683518 6.14261838 17.15625 9.76757812 C23.19937047 13.54139402 27.31908446 15.32648617 34.42578125 14.33984375 C35.16554199 14.25371826 35.90530273 14.16759277 36.66748047 14.07885742 C38.16710901 13.89160651 39.66505983 13.69036397 41.16088867 13.47485352 C50.72063343 12.11359203 57.04967793 12.35587973 65.30078125 17.71484375 C68.17522765 19.92494441 69.67599681 22.1445852 71.42578125 25.33984375 C73.30257602 27.78273695 75.20908875 30.19724682 77.42578125 32.33984375 C78.08578125 32.33984375 78.74578125 32.33984375 79.42578125 32.33984375 C79.48765625 32.93796875 79.54953125 33.53609375 79.61328125 34.15234375 C80.80204072 37.35285001 82.37365245 37.8196867 85.42578125 39.33984375 C88.47694543 40.25129666 91.5733785 40.93874887 94.67578125 41.65234375 C102.64840897 43.65041086 109.72534084 45.43230781 114.88671875 52.27734375 C119.22600737 59.8513748 120.83880994 68.8733586 122.8190918 77.30029297 C123.72005719 80.32913197 124.44640345 82.76572573 127.23828125 84.40234375 C127.96015625 84.71171875 128.68203125 85.02109375 129.42578125 85.33984375 C135.51715913 88.48987114 138.59475973 93.19486175 141.42578125 99.33984375 C141.91023582 102.58107552 141.24254012 105.19152322 140.42578125 108.33984375 C140.01646295 110.23193766 139.60816296 112.12431746 139.21826172 114.02050781 C138.81727194 115.94807271 138.38391577 117.86881831 137.94921875 119.7890625 C136.98090379 126.35770651 138.54788661 130.02300179 142.17578125 135.46484375 C152.53615978 151.56675399 152.53615978 151.56675399 151.42578125 160.33984375 C150.22609108 162.97879747 148.70145567 165.35691669 147.11328125 167.77734375 C140.89629221 177.44069686 140.89629221 177.44069686 139.17578125 188.65234375 C139.2015625 189.77898437 139.22734375 190.905625 139.25390625 192.06640625 C139.40282133 194.90256159 139.62298669 197.70422978 139.92578125 200.52734375 C140.0925661 202.13149813 140.25921893 203.73566625 140.42578125 205.33984375 C140.53108154 206.13704834 140.63638184 206.93425293 140.74487305 207.75561523 C141.03535302 211.4582225 141.24524215 214.20946064 139.00439453 217.30053711 C137.00375979 219.10788497 134.94701065 220.66930986 132.73828125 222.21484375 C132.01705078 222.75625 131.29582031 223.29765625 130.55273438 223.85546875 C129.15569159 224.90165604 127.74858735 225.93457634 126.33056641 226.95214844 C124.6862339 228.15009588 123.10193313 229.42965124 121.53125 230.72265625 C119.42578125 232.33984375 119.42578125 232.33984375 117.42578125 232.33984375 C117.02919739 233.65211717 116.6336061 234.96469051 116.23828125 236.27734375 C115.965 237.17839844 115.69171875 238.07945312 115.41015625 239.0078125 C114.66609875 241.5263881 113.95065748 244.04648279 113.25390625 246.578125 C113.04531982 247.3213501 112.8367334 248.0645752 112.62182617 248.83032227 C112.20724273 250.30892334 111.80081666 251.789842 111.40356445 253.27319336 C109.7201525 259.21420327 107.49688893 263.59729707 102.66796875 267.66015625 C98.92386101 269.59987472 95.6732638 269.9750682 91.55078125 270.21484375 C83.56129913 271.00700972 79.26924908 272.66058352 74.15039062 278.89257812 C72.21498363 281.30980673 70.31211826 283.74936586 68.43823242 286.21459961 C64.54626 291.31807564 60.71771782 296.24253156 54.42578125 298.33984375 C52.42757397 298.43420354 50.42620922 298.46974676 48.42578125 298.46484375 C47.37390625 298.46742188 46.32203125 298.47 45.23828125 298.47265625 C42.42578125 298.33984375 42.42578125 298.33984375 39.42578125 297.33984375 C26.67425351 295.86030046 19.05814313 298.6233634 8.42578125 305.33984375 C6.74659676 306.37429838 5.06044919 307.39766574 3.36328125 308.40234375 C2.73292969 308.80582031 2.10257813 309.20929688 1.453125 309.625 C-1.72557124 310.74581197 -3.31393296 310.33145141 -6.57421875 309.33984375 C-11.01856168 306.77872127 -15.23054707 303.84547301 -19.43554688 300.91210938 C-26.85523862 296.03229754 -32.56587161 295.22417281 -41.24194336 296.83520508 C-42.83764916 297.18047085 -44.43275807 297.52850367 -46.02734375 297.87890625 C-51.91294988 298.94409263 -57.40970915 299.36083884 -62.88671875 296.77734375 C-66.8328352 293.1983079 -70.08685081 289.30613742 -73.296875 285.0625 C-73.88339844 284.28777344 -74.46992187 283.51304687 -75.07421875 282.71484375 C-75.60015625 282.00070312 -76.12609375 281.2865625 -76.66796875 280.55078125 C-82.15676647 274.1846757 -86.99347951 272.22642725 -95.01171875 270.21484375 C-111.59199542 265.89767108 -111.59199542 265.89767108 -114.02734375 262.03515625 C-114.2903125 261.18695313 -114.55328125 260.33875 -114.82421875 259.46484375 C-115.81134467 256.51623056 -116.55952493 254.3613597 -118.32421875 251.77734375 C-119.72526149 249.04531041 -119.64377177 247.79010899 -119.51171875 244.77734375 C-119.36079613 241.007655 -119.36079613 241.007655 -121.44921875 237.77734375 C-123.42272206 236.15307396 -123.42272206 236.15307396 -125.57421875 236.33984375 C-126.91317507 234.67769107 -128.24552017 233.01020768 -129.57421875 231.33984375 C-131.82067786 229.37419203 -133.76587636 227.67773087 -136.52734375 226.5234375 C-140.95226646 223.96475128 -142.88535238 218.97734978 -144.57421875 214.33984375 C-145.26810139 208.19865818 -145.1342491 202.32200739 -143.57421875 196.33984375 C-142.56003808 187.53096026 -144.77333643 181.19625808 -148.57421875 173.33984375 C-149.5139197 171.39422302 -150.45097636 169.44752188 -151.38061523 167.49707031 C-151.99288562 166.21898558 -152.61552877 164.94579894 -153.25024414 163.67871094 C-155.26927909 159.51498201 -156.61974293 155.98836796 -156.57421875 151.33984375 C-155.16160768 148.20396594 -153.26335725 145.50187301 -151.26171875 142.71484375 C-150.24103821 141.24609087 -149.22399624 139.77480153 -148.2109375 138.30078125 C-147.75420654 137.65931152 -147.29747559 137.0178418 -146.8269043 136.35693359 C-143.98020061 131.77313592 -143.35245648 128.38565233 -143.703125 123.0078125 C-143.76822266 121.79673828 -143.83332031 120.58566406 -143.90039062 119.33789062 C-144.05723393 116.80895434 -144.21865093 114.28029734 -144.38476562 111.75195312 C-144.81852626 103.49297544 -144.97983227 97.40158464 -139.4453125 90.80078125 C-138.64222656 90.11242187 -137.83914062 89.4240625 -137.01171875 88.71484375 C-136.13 87.94785156 -135.24828125 87.18085937 -134.33984375 86.390625 C-131.70191743 84.43453557 -129.24332417 83.23692462 -126.26171875 81.90234375 C-121.80090377 79.41323696 -120.65395964 76.75295643 -119.2578125 72.05541992 C-117.96286528 67.04513476 -116.90583189 62.00362694 -115.89453125 56.9296875 C-114.78584607 51.95429166 -113.83801105 49.01212874 -109.76171875 45.77734375 C-105.58115008 43.14653381 -101.92726846 41.35352427 -96.88671875 41.32421875 C-89.07351827 41.20462895 -85.32687612 39.42952238 -79.8203125 33.87890625 C-76.53694859 30.16727748 -73.52379092 26.31850498 -70.57421875 22.33984375 C-69.52703413 21.01509212 -68.46538754 19.7015882 -67.38671875 18.40234375 C-66.93941406 17.85707031 -66.49210937 17.31179687 -66.03125 16.75 C-62.0267709 12.87435133 -57.78004961 13.02522409 -52.44921875 13.08984375 C-51.69020264 13.09298584 -50.93118652 13.09612793 -50.14916992 13.09936523 C-45.17775169 13.17198324 -40.55888832 13.65491789 -35.75 15 C-30.41184397 15.83378739 -26.40849511 13.94157832 -21.984375 11.14453125 C-20.4365332 10.19513672 -20.4365332 10.19513672 -18.85742188 9.2265625 C-16.70957344 7.8849713 -14.56632215 6.5359921 -12.42773438 5.1796875 C-4.66492446 0.44355019 -4.66492446 0.44355019 0 0 Z M-103.57421875 71.33984375 C-117.44308421 87.58622901 -128.02719327 109.24636243 -131.57421875 130.33984375 C-131.84878906 131.65275391 -131.84878906 131.65275391 -132.12890625 132.9921875 C-138.3563124 166.13393117 -129.7303424 200.43761781 -111.76171875 228.52734375 C-107.15351412 235.18565517 -101.95450748 241.30024582 -96.57421875 247.33984375 C-95.97996094 248.00757813 -95.38570312 248.6753125 -94.7734375 249.36328125 C-77.01568111 268.13450761 -51.64698524 280.37235091 -26.57421875 285.33984375 C-25.45144531 285.56414062 -24.32867187 285.7884375 -23.171875 286.01953125 C9.33215338 291.55697366 44.61555992 283.74334569 71.796875 265.08203125 C78.38742913 260.2629509 84.48701297 254.93462886 90.42578125 249.33984375 C91.08964844 248.74042969 91.75351563 248.14101562 92.4375 247.5234375 C115.03876818 226.29750004 128.66894363 193.3855976 129.703125 162.65625 C130.34153143 130.68847943 122.79322337 100.66052951 102.42578125 75.33984375 C102.01602051 74.82470215 101.60625977 74.30956055 101.18408203 73.77880859 C90.92856798 60.96036667 79.42492106 50.89010959 65.42578125 42.33984375 C64.53681152 41.79432861 64.53681152 41.79432861 63.62988281 41.23779297 C7.57046307 7.51187332 -61.44153727 24.54234943 -103.57421875 71.33984375 Z " fill="#FED877" transform="translate(157.57421875,-0.33984375)"/>
<path d="M0 0 C0.19362122 0.53154694 0.38724243 1.06309387 0.58673096 1.61074829 C2.71622491 7.45590979 4.84758643 13.30038836 6.9800415 19.14447021 C7.8257605 21.46230199 8.67126066 23.78021362 9.51654053 26.09820557 C14.2978283 39.20634024 19.10044065 52.30566534 23.97613525 65.3789711 C24.67435217 67.25131773 25.37184685 69.12393363 26.06933594 70.99655151 C28.29392056 76.96843823 30.5238825 82.93821793 32.76269531 88.90478516 C33.57380187 91.07966529 34.384686 93.25462839 35.1953125 95.4296875 C35.56735809 96.41495422 35.93940369 97.40022095 36.32272339 98.41534424 C39.75878806 107.66762761 39.75878806 107.66762761 40 112 C39.34 112.66 38.68 113.32 38 114 C31.53846154 113.53846154 31.53846154 113.53846154 29 111 C26.25860462 110.35072215 23.55612879 110.03469781 20.74609375 109.859375 C13.52675114 109.3970008 6.44336864 108.36983488 -0.6875 107.1875 C-1.66130615 107.03434326 -2.6351123 106.88118652 -3.63842773 106.72338867 C-9.21168047 105.76728388 -13.92976357 104.32280583 -19.03198242 101.8972168 C-23.85193844 99.69980477 -27.9792689 99.26740514 -33 101 C-37.29344252 104.48684666 -40.32728602 109.26783793 -43.44384766 113.77978516 C-45.52658601 116.75129796 -47.74036844 119.6109619 -49.96240234 122.47900391 C-51.6081857 124.60329696 -53.23793846 126.73894566 -54.86328125 128.87890625 C-57.83269696 132.78400439 -60.81911255 136.67575823 -63.8125 140.5625 C-64.23934082 141.11695801 -64.66618164 141.67141602 -65.10595703 142.24267578 C-66.07041089 143.4952921 -67.03516624 144.74767628 -68 146 C-70.05330956 142.92003566 -71.15905699 140.16198889 -72.43920898 136.69384766 C-72.79353249 135.73893936 -72.79353249 135.73893936 -73.15501404 134.76473999 C-73.93900896 132.64917295 -74.717496 130.53162118 -75.49609375 128.4140625 C-76.04943592 126.91826782 -76.60315907 125.42261402 -77.15724182 123.92709351 C-78.62444559 119.96430999 -80.08717438 115.99989013 -81.54876709 112.03503418 C-83.84715184 105.80235645 -86.15209122 99.57209902 -88.45705032 93.34185028 C-89.30701671 91.04332721 -90.1557742 88.74436007 -91.00448608 86.44537354 C-93.73230983 79.06441966 -96.48538241 71.69453372 -99.30126953 64.34667969 C-99.56159123 63.66629072 -99.82191294 62.98590176 -100.09012318 62.28489494 C-101.3128689 59.09096807 -102.54131289 55.89955368 -103.77891541 52.71133423 C-104.20515701 51.60180389 -104.63139862 50.49227356 -105.07055664 49.34912109 C-105.44507462 48.38299896 -105.81959259 47.41687683 -106.20545959 46.42147827 C-107 44 -107 44 -107 41 C-94.04822937 32.35352185 -85.71261054 27.32822007 -70 30 C-67.14371696 30.19970332 -64.30000073 30.2406943 -61.4375 30.25 C-59.54837891 30.28867187 -59.54837891 30.28867187 -57.62109375 30.328125 C-52.63143814 29.87598792 -48.57901903 28.62836337 -45 24.9375 C-43.81103219 23.19120353 -42.63427371 21.43632906 -41.484375 19.6640625 C-35.18453537 10.21430305 -28.44750336 4.88318763 -17.24609375 2.05078125 C-15.98925781 1.80714844 -14.73242188 1.56351562 -13.4375 1.3125 C-12.17808594 1.06113281 -10.91867187 0.80976563 -9.62109375 0.55078125 C-6.33090412 0.05033169 -3.31692607 -0.04116597 0 0 Z " fill="#FB345B" transform="translate(268,272)"/>
<path d="M0 0 C0.7616748 0.20898926 1.52334961 0.41797852 2.30810547 0.63330078 C35.88536903 10.09617747 63.78544378 32.94687533 80.9375 63.15625 C85.92495335 72.27510128 89.80830121 81.74202083 92.8125 91.6875 C93.0074707 92.3273584 93.20244141 92.9672168 93.40332031 93.62646484 C102.71325743 126.37544117 96.80740623 161.88614468 80.8359375 191.44848633 C74.8772174 202.05514312 67.32850269 211.15943747 59 220 C58.40058594 220.66386719 57.80117187 221.32773438 57.18359375 222.01171875 C35.09138417 245.53538899 1.67661899 257.78777638 -30.01953125 259.2734375 C-66.60717242 260.33892512 -99.10710856 246.18479608 -126 222 C-126.99580078 221.11248047 -126.99580078 221.11248047 -128.01171875 220.20703125 C-142.48769855 206.54089648 -152.21266087 188.47023693 -159 170 C-159.40089844 168.92363281 -159.80179688 167.84726563 -160.21484375 166.73828125 C-171.06519863 134.76044292 -167.38899268 99.50750303 -152.828125 69.42578125 C-146.52460479 56.88444528 -138.64540714 46.19702356 -129 36 C-128.19046875 35.11441406 -127.3809375 34.22882812 -126.546875 33.31640625 C-115.08540168 21.22009084 -101.17465729 12.69404217 -86 6 C-85.36126953 5.71785645 -84.72253906 5.43571289 -84.06445312 5.14501953 C-57.78090872 -6.17558322 -27.51249805 -7.76634436 0 0 Z M-126.51367188 46.32714844 C-135.24939328 56.15913974 -141.685519 67.01575123 -147 79 C-147.48210937 80.07765625 -147.96421875 81.1553125 -148.4609375 82.265625 C-149.79227248 85.47696635 -150.93044555 88.69237432 -152 92 C-152.39316406 93.19238281 -152.78632813 94.38476562 -153.19140625 95.61328125 C-156.21389084 106.01165498 -156.39843777 116.50265879 -156.4375 127.25 C-156.4436734 127.97271088 -156.4498468 128.69542175 -156.45620728 129.44003296 C-156.63779232 162.5349637 -142.39469394 192.19820788 -119.44580078 215.57714844 C-96.19394703 238.45992514 -65.80936556 249.46317623 -33.5625 249.3125 C-31.65247192 249.30404053 -31.65247192 249.30404053 -29.70385742 249.29541016 C-20.74295259 249.17951908 -12.6239995 248.58524872 -4 246 C-3.30970703 245.80132324 -2.61941406 245.60264648 -1.90820312 245.39794922 C19.29000327 239.21899604 35.89005916 229.17841365 52 214 C52.67546875 213.38898438 53.3509375 212.77796875 54.046875 212.1484375 C74.739555 192.6973183 86.7618156 162.42948163 88.1262207 134.40771484 C89.07930297 102.19656001 80.06213744 72.80500515 59 48 C58.29488281 47.13246094 57.58976563 46.26492187 56.86328125 45.37109375 C37.74025324 22.78400521 7.32331022 7.77703623 -22 5 C-62.5340658 2.57122556 -98.87017007 16.50316181 -126.51367188 46.32714844 Z " fill="#FFB603" transform="translate(190,28)"/>
<path d="M0 0 C0.66 0 1.32 0 2 0 C2.2475 0.78375 2.495 1.5675 2.75 2.375 C4.24062337 5.50530909 4.99419751 5.54003879 8 7 C10.52603049 9.0654014 11.65586977 10.1071069 13 13 C13.43577446 17.80270128 13.05379634 22.51234202 12.6875 27.3125 C11.86521282 39.4153491 11.43695822 48.2664115 18.5625 58.375 C22.54901632 64.20192682 25.02539911 68.71803871 24 76 C22.84477521 78.90673927 21.28579444 81.4809745 19.625 84.125 C18.79981777 85.4788146 17.97939726 86.83554453 17.1640625 88.1953125 C16.79748535 88.78328613 16.4309082 89.37125977 16.05322266 89.97705078 C13.29664518 95.27167317 12.76096389 99.96454351 12.98046875 105.84765625 C13.01061557 107.35480095 13.03988616 108.86196338 13.06835938 110.36914062 C13.12419735 112.72196098 13.18788432 115.07387809 13.26733398 117.42602539 C13.34004524 119.71249645 13.38110912 121.99786446 13.41796875 124.28515625 C13.46608955 125.33377586 13.46608955 125.33377586 13.5151825 126.40357971 C13.55486642 130.24221745 13.15537395 131.81126726 10.68481445 134.81225586 C9.3558313 135.89518921 9.3558313 135.89518921 8 137 C7.41476562 137.49435547 6.82953125 137.98871094 6.2265625 138.49804688 C5.69804687 138.90087891 5.16953125 139.30371094 4.625 139.71875 C4.03203125 140.17636719 3.4390625 140.63398438 2.828125 141.10546875 C1.609375 142.03515625 0.390625 142.96484375 -0.828125 143.89453125 C-2.57175796 145.24016104 -4.28881665 146.6134397 -6 148 C-6.90234375 148.721875 -7.8046875 149.44375 -8.734375 150.1875 C-12.00076446 154.2423283 -12.97391039 158.5122734 -14.25 163.5 C-14.50523437 164.43714844 -14.76046875 165.37429687 -15.0234375 166.33984375 C-15.7101422 168.88787959 -16.37900868 171.43517107 -17 174 C-17.19045898 174.74056641 -17.38091797 175.48113281 -17.57714844 176.24414062 C-18.69465588 183.52729535 -17.94246512 189.49524937 -15.39453125 196.36328125 C-15.11919556 197.14036438 -14.84385986 197.91744751 -14.56018066 198.71807861 C-13.65769165 201.25457881 -12.73533593 203.78333949 -11.8125 206.3125 C-11.17284309 208.09778598 -10.53443395 209.88351948 -9.8972168 211.66967773 C-8.26313189 216.23920683 -6.61239516 220.8025111 -4.95605469 225.36401367 C-3.48413876 229.42230691 -2.0237852 233.48474488 -0.5625 237.546875 C1.57617722 243.4847214 3.71927993 249.42095506 5.8671875 255.35546875 C6.1250705 256.06815414 6.38295349 256.78083954 6.64865112 257.51512146 C7.97214307 261.1702447 9.29984484 264.82377527 10.63378906 268.47509766 C11.95472456 272.09112741 13.26669412 275.71029577 14.57266235 279.33175659 C15.05954108 280.6763918 15.54982895 282.01979829 16.04379272 283.36184692 C16.72156748 285.20417126 17.38647006 287.05121575 18.05078125 288.8984375 C18.61792847 290.45570557 18.61792847 290.45570557 19.1965332 292.04443359 C20.04800358 295.17658201 20.22211386 297.76919953 20 301 C19 302 19 302 15.96850586 302.15820312 C11.66822299 301.98677382 7.70809133 301.32923139 3.50390625 300.46875 C1.87695489 300.1497306 0.2500017 299.83072047 -1.37695312 299.51171875 C-3.90934906 299.00676082 -6.44121953 298.49925287 -8.97290039 297.99072266 C-11.43777452 297.49798725 -13.90431836 297.01436227 -16.37109375 296.53125 C-17.11717392 296.37813354 -17.86325409 296.22501709 -18.63194275 296.06726074 C-23.51664303 295.11325226 -28.02593614 294.94098738 -33 295 C-35.90625 294.16015625 -35.90625 294.16015625 -38.5 293.0625 C-43.88884186 290.95479764 -48.53435706 289.81759774 -54.375 290.125 C-56.21400826 290.87815717 -56.21400826 290.87815717 -56.6953125 293.0234375 C-58.60713913 297.38514976 -61.53985134 300.7954318 -64.5 304.5 C-65.78030108 306.12211715 -67.06024734 307.74451442 -68.33984375 309.3671875 C-68.96745605 310.15963867 -69.59506836 310.95208984 -70.24169922 311.76855469 C-72.54856606 314.69618075 -74.80595914 317.65841086 -77.0625 320.625 C-91.69162088 339.69162088 -91.69162088 339.69162088 -96 344 C-97.52519276 343.91062197 -99.04681929 343.75462854 -100.5625 343.5625 C-101.38878906 343.46066406 -102.21507812 343.35882813 -103.06640625 343.25390625 C-103.70449219 343.17011719 -104.34257812 343.08632813 -105 343 C-104.67 342.01 -104.34 341.02 -104 340 C-102.824375 339.9071875 -102.824375 339.9071875 -101.625 339.8125 C-100.75875 339.544375 -99.8925 339.27625 -99 339 C-98.32744132 337.33570224 -97.66170342 335.6686434 -97 334 C-95.2578125 331.88671875 -95.2578125 331.88671875 -93.125 329.6875 C-89.22545307 325.47698441 -85.72342482 321.11351978 -82.3125 316.5 C-77.8006119 310.4007723 -73.22290309 304.36176402 -68.5625 298.375 C-67.98346924 297.62927734 -67.40443848 296.88355469 -66.80786133 296.11523438 C-65.71472208 294.71260812 -64.61548266 293.31470793 -63.50927734 291.92236328 C-62.54177124 290.69005286 -61.5968738 289.43944698 -60.68212891 288.16748047 C-58.68319357 285.48930295 -57.4867101 284.12643587 -54.203125 283.2734375 C-52.74132812 283.32371094 -52.74132812 283.32371094 -51.25 283.375 C-50.28578125 283.38273437 -49.3215625 283.39046875 -48.328125 283.3984375 C-45.38376096 283.93063476 -43.645505 284.57760039 -41.01953125 285.8671875 C-34.7807301 288.79330448 -28.19428511 289.66096925 -21.4375 290.75 C-20.16197266 290.97042969 -18.88644531 291.19085938 -17.57226562 291.41796875 C-11.28450379 292.46864821 -5.3668743 293.16714944 1 293 C4.17186338 293.98680194 6.21716853 295.14477902 9 297 C11.62531524 297.16713569 11.62531524 297.16713569 14 297 C15.44919943 292.45192761 13.93011307 289.18660916 12.30078125 284.8828125 C11.99832489 284.05786285 11.69586853 283.23291321 11.38424683 282.38296509 C10.37062146 279.62639193 9.34160101 276.87582933 8.3125 274.125 C7.59776618 272.19077973 6.88399984 270.25620172 6.17114258 268.32128906 C4.62728332 264.13726471 3.07648273 259.95590083 1.52050781 255.77636719 C-1.13627115 248.63916111 -3.77566408 241.49557967 -6.4140625 234.3515625 C-9.90117157 224.91429484 -13.39348244 215.47898068 -16.89453125 206.046875 C-17.45142136 204.54636093 -17.45142136 204.54636093 -18.01956177 203.01553345 C-18.36864594 202.07551483 -18.7177301 201.13549622 -19.07739258 200.16699219 C-19.56642563 198.84556213 -19.56642563 198.84556213 -20.06533813 197.49743652 C-20.67239669 195.87536305 -21.29028007 194.25728479 -21.92074585 192.64416504 C-23.09978125 189.61549606 -24 187.28181667 -24 184 C-27.79819166 184.67581867 -31.58656552 185.39662573 -35.375 186.125 C-36.43589844 186.31320312 -37.49679688 186.50140625 -38.58984375 186.6953125 C-47.65032625 188.47405753 -56.37514486 191.63492219 -61.875 199.5 C-62.42671875 200.26699219 -62.9784375 201.03398437 -63.546875 201.82421875 C-64.75978124 203.64031761 -65.94580068 205.47433635 -67.125 207.3125 C-69.41474737 210.59447123 -71.84754832 213.24466719 -75.703125 214.59765625 C-78.90562493 215.15863838 -81.99918425 215.13147573 -85.25 215.125 C-86.31118042 215.13515137 -86.31118042 215.13515137 -87.39379883 215.14550781 C-91.00947085 215.15031429 -94.2875927 214.95182605 -97.87109375 214.3515625 C-108.72473758 212.64075273 -114.64216089 215.74474381 -123.64331055 221.68066406 C-129.14203586 225.26662867 -132.39986256 227.00186702 -139 226 C-142.52734375 224.64453125 -142.52734375 224.64453125 -145.9375 222.8125 C-146.54231201 222.49659912 -147.14712402 222.18069824 -147.77026367 221.85522461 C-151.19933406 220.04903115 -154.50645775 218.0809258 -157.8125 216.0625 C-164.67614988 212.21277756 -171.18748269 213.97193903 -178.5234375 215.5390625 C-184.81488679 216.71002625 -190.23298448 216.71661512 -195.90234375 213.515625 C-202.32037004 208.87839185 -207.39644457 202.89831682 -212.0625 196.5625 C-215.91268598 191.64622667 -219.03183567 190.30920398 -225 189 C-227.33989017 188.37834161 -229.67314865 187.73131083 -232 187.0625 C-233.11375 186.76472656 -234.2275 186.46695313 -235.375 186.16015625 C-238 185 -238 185 -238.9375 182.93359375 C-238.958125 182.29550781 -238.97875 181.65742188 -239 181 C-238.67 180.67 -238.34 180.34 -238 180 C-225.62651288 180.78561823 -217.51716258 183.67433426 -209 193 C-206.85624267 195.78200382 -204.83181018 198.59556518 -202.88671875 201.51953125 C-200.41607326 204.76768836 -197.65732394 207.17133803 -194 209 C-188.56046328 209.40607653 -183.32221348 209.20261555 -178 208 C-170.20360048 206.30992282 -163.62802684 205.59963565 -156.54296875 209.80859375 C-154.74131264 210.99351397 -152.95608079 212.20375664 -151.1875 213.4375 C-149.39522363 214.65327575 -147.59719797 215.8606279 -145.79296875 217.05859375 C-145.0146167 217.59798584 -144.23626465 218.13737793 -143.43432617 218.69311523 C-140.50189225 220.26741257 -138.32871281 220.84122166 -135 221 C-132.28878458 219.97513252 -132.28878458 219.97513252 -129.7265625 218.25390625 C-128.25255981 217.36759521 -128.25255981 217.36759521 -126.7487793 216.46337891 C-125.71793213 215.83608887 -124.68708496 215.20879883 -123.625 214.5625 C-113.73181133 208.83435052 -106.43099724 205.85006409 -95 208 C-94.01 208.33 -93.02 208.66 -92 209 C-85.91991644 209.54222967 -79.84349567 210.03956983 -74.640625 206.453125 C-69.57040027 201.96235453 -65.4734265 196.65832209 -61.4375 191.25 C-57.15629731 185.79860191 -54.29005977 182.52233939 -47.2109375 181.3984375 C-45.09366896 181.14821264 -42.98945564 180.940769 -40.86157227 180.80688477 C-35.8282761 180.42213939 -32.82198882 179.30154779 -29 176 C-25.13365822 170.53307587 -23.56716492 164.73645941 -21.875 158.3125 C-21.37601272 156.4534525 -20.87353677 154.59533707 -20.3671875 152.73828125 C-20.15175293 151.92399658 -19.93631836 151.10971191 -19.71435547 150.27075195 C-18.03289437 144.92582042 -15.3899276 142.4545944 -10.9375 139.1875 C-10.35911377 138.74664062 -9.78072754 138.30578125 -9.18481445 137.8515625 C-6.55205598 135.85065147 -3.9163387 133.94571159 -1.140625 132.14453125 C3.33206543 129.27823449 3.33206543 129.27823449 5.58203125 124.69921875 C5.62723266 122.0569909 5.38568146 119.61318867 5 117 C4.64309252 113.66886347 4.31075468 110.33575728 4 107 C3.896875 106.00097656 3.79375 105.00195312 3.6875 103.97265625 C3.03602446 92.77542045 7.72222458 84.60017271 14 75.6875 C16.16919669 72.22694207 16.63178345 69.78240761 15.91015625 65.75390625 C13.20923405 57.58158799 8.97261571 49.58906144 3.9375 42.625 C1.01426688 38.09743355 1.93157034 34.07157196 3 29 C3.7966617 25.39135914 4.60012241 21.78940683 5.4765625 18.19921875 C6.31173594 13.09468856 5.29976298 10.02842582 2.4375 5.8125 C0 2.20113314 0 2.20113314 0 0 Z " fill="#667071" transform="translate(292,88)"/>
<path d="M0 0 C0.19362122 0.53154694 0.38724243 1.06309387 0.58673096 1.61074829 C2.71622491 7.45590979 4.84758643 13.30038836 6.9800415 19.14447021 C7.8257605 21.46230199 8.67126066 23.78021362 9.51654053 26.09820557 C14.2978283 39.20634024 19.10044065 52.30566534 23.97613525 65.3789711 C24.67435217 67.25131773 25.37184685 69.12393363 26.06933594 70.99655151 C28.29392056 76.96843823 30.5238825 82.93821793 32.76269531 88.90478516 C33.57380187 91.07966529 34.384686 93.25462839 35.1953125 95.4296875 C35.56735809 96.41495422 35.93940369 97.40022095 36.32272339 98.41534424 C39.75878806 107.66762761 39.75878806 107.66762761 40 112 C39.34 112.66 38.68 113.32 38 114 C31.53846154 113.53846154 31.53846154 113.53846154 29 111 C26.67724823 110.59952556 24.34260643 110.2602896 22 110 C21.69316284 109.17653076 21.69316284 109.17653076 21.38012695 108.33642578 C20.35901787 105.59874651 19.33601968 102.86177899 18.3125 100.125 C17.91458252 99.06071777 17.51666504 97.99643555 17.10668945 96.89990234 C14.74421202 90.59846795 12.35543372 84.30854227 9.9296875 78.03125 C4.24702812 63.3135296 -1.31082756 48.56527722 -6.5625 33.6875 C-6.81021149 32.98788147 -7.05792297 32.28826294 -7.31314087 31.56744385 C-16 6.98709765 -16 6.98709765 -16 2 C-14.45998293 1.65912666 -12.91787594 1.32769047 -11.375 1 C-10.08722656 0.7215625 -10.08722656 0.7215625 -8.7734375 0.4375 C-5.80645501 -0.03053104 -2.99903218 -0.02901119 0 0 Z " fill="#F8355C" transform="translate(268,272)"/>
<path d="M0 0 C-0.25348051 3.63322065 -0.66368965 5.59012176 -3 8.4375 C-5.45186723 10.53180326 -7.93501246 12.48810947 -10.5 14.4375 C-20.71581566 22.29842615 -24.32869435 32.40869817 -28.125 44.375 C-28.80954304 46.5304199 -29.49938637 48.68416591 -30.1953125 50.8359375 C-30.49453613 51.78001465 -30.79375977 52.7240918 -31.10205078 53.69677734 C-32 56 -32 56 -34 58 C-36.149323 58.55177512 -38.32094287 59.01826836 -40.5 59.4375 C-52.74763549 61.96459129 -63.23354058 64.20422135 -70.75 75 C-71.83991486 76.66237014 -72.92384075 78.32869208 -74 80 C-77.22756766 84.65664129 -80.54364005 87.31756486 -86 89 C-89.62109375 89.328125 -89.62109375 89.328125 -93.4375 89.25 C-94.13141846 89.24774414 -94.82533691 89.24548828 -95.5402832 89.24316406 C-99.08955003 89.2031001 -102.34556326 88.94124026 -105.859375 88.34375 C-116.7245987 86.65853163 -122.63003242 89.73674554 -131.64331055 95.68066406 C-137.14203586 99.26662867 -140.39986256 101.00186702 -147 100 C-150.52734375 98.64453125 -150.52734375 98.64453125 -153.9375 96.8125 C-154.54231201 96.49659912 -155.14712402 96.18069824 -155.77026367 95.85522461 C-159.19933406 94.04903115 -162.50645775 92.0809258 -165.8125 90.0625 C-172.67614988 86.21277756 -179.18748269 87.97193903 -186.5234375 89.5390625 C-192.81488679 90.71002625 -198.23298448 90.71661512 -203.90234375 87.515625 C-210.32037004 82.87839185 -215.39644457 76.89831682 -220.0625 70.5625 C-223.91268598 65.64622667 -227.03183567 64.30920398 -233 63 C-235.33989017 62.37834161 -237.67314865 61.73131083 -240 61.0625 C-241.11375 60.76472656 -242.2275 60.46695313 -243.375 60.16015625 C-246 59 -246 59 -246.9375 56.93359375 C-246.958125 56.29550781 -246.97875 55.65742188 -247 55 C-246.505 54.505 -246.505 54.505 -246 54 C-233.62651288 54.78561823 -225.51716258 57.67433426 -217 67 C-214.85624267 69.78200382 -212.83181018 72.59556518 -210.88671875 75.51953125 C-208.41607326 78.76768836 -205.65732394 81.17133803 -202 83 C-196.56046328 83.40607653 -191.32221348 83.20261555 -186 82 C-178.20360048 80.30992282 -171.62802684 79.59963565 -164.54296875 83.80859375 C-162.74131264 84.99351397 -160.95608079 86.20375664 -159.1875 87.4375 C-157.39522363 88.65327575 -155.59719797 89.8606279 -153.79296875 91.05859375 C-153.0146167 91.59798584 -152.23626465 92.13737793 -151.43432617 92.69311523 C-148.50189225 94.26741257 -146.32871281 94.84122166 -143 95 C-140.28878458 93.97513252 -140.28878458 93.97513252 -137.7265625 92.25390625 C-136.74389404 91.66303223 -135.76122559 91.0721582 -134.7487793 90.46337891 C-133.71793213 89.83608887 -132.68708496 89.20879883 -131.625 88.5625 C-121.73181133 82.83435052 -114.43099724 79.85006409 -103 82 C-102.01 82.33 -101.02 82.66 -100 83 C-93.91991644 83.54222967 -87.84349567 84.03956983 -82.640625 80.453125 C-77.57040027 75.96235453 -73.4734265 70.65832209 -69.4375 65.25 C-65.15629731 59.79860191 -62.29005977 56.52233939 -55.2109375 55.3984375 C-53.09366896 55.14821264 -50.98945564 54.940769 -48.86157227 54.80688477 C-43.8282761 54.42213939 -40.82198882 53.30154779 -37 50 C-33.13365822 44.53307587 -31.56716492 38.73645941 -29.875 32.3125 C-29.37601272 30.4534525 -28.87353677 28.59533707 -28.3671875 26.73828125 C-28.15175293 25.92399658 -27.93631836 25.10971191 -27.71435547 24.27075195 C-26.04166335 18.95369474 -23.43751832 16.49077728 -19 13.25 C-17.82605057 12.37342925 -16.65288276 11.49581082 -15.48046875 10.6171875 C-14.60334229 9.96314941 -14.60334229 9.96314941 -13.70849609 9.29589844 C-10.36858651 6.76256891 -7.15385598 4.07176943 -3.92578125 1.3984375 C-2 0 -2 0 0 0 Z " fill="#0C0806" transform="translate(300,214)"/>
<path d="M0 0 C3.1357117 3.1357117 2.30883822 7.01036186 2.31884766 11.22314453 C2.32889328 12.1792865 2.3389389 13.13542847 2.34928894 14.12054443 C2.3802608 17.29129415 2.3971949 20.46195891 2.4140625 23.6328125 C2.43276289 25.82714577 2.45233544 28.02147178 2.4727478 30.21578979 C2.5241943 35.99928509 2.56375291 41.78280373 2.60089111 47.56640625 C2.64085246 53.4649031 2.6919806 59.36330178 2.7421875 65.26171875 C2.83909493 76.841077 2.92345213 88.42049052 3 100 C3.63091553 100.02505615 4.26183105 100.0501123 4.91186523 100.07592773 C7.75396825 100.19154137 10.59571083 100.31442316 13.4375 100.4375 C14.43072266 100.47681641 15.42394531 100.51613281 16.44726562 100.55664062 C17.39150391 100.59853516 18.33574219 100.64042969 19.30859375 100.68359375 C20.18314209 100.72025146 21.05769043 100.75690918 21.95874023 100.79467773 C24 101 24 101 25 102 C25.125 105 25.125 105 25 108 C23.30704655 109.69295345 21.17103516 109.12749729 18.85351562 109.12939453 C17.75567749 109.13254669 16.65783936 109.13569885 15.5267334 109.13894653 C14.33197388 109.1369223 13.13721436 109.13489807 11.90625 109.1328125 C10.68925415 109.13376923 9.4722583 109.13472595 8.21838379 109.13571167 C5.63924101 109.13639372 3.06009653 109.13453772 0.48095703 109.13037109 C-3.48278636 109.12502322 -7.44641642 109.13031529 -11.41015625 109.13671875 C-13.90885442 109.13605797 -16.40755252 109.13477682 -18.90625 109.1328125 C-20.69838928 109.13584885 -20.69838928 109.13584885 -22.5267334 109.13894653 C-23.62457153 109.13579437 -24.72240967 109.13264221 -25.85351562 109.12939453 C-27.31126404 109.12820114 -27.31126404 109.12820114 -28.79846191 109.12698364 C-31 109 -31 109 -32 108 C-32.1875 105.5625 -32.1875 105.5625 -32 103 C-31.01 102.01 -31.01 102.01 -30 101 C-22.41 101 -14.82 101 -7 101 C-7.33 71.96 -7.66 42.92 -8 13 C-13.61 12.67 -19.22 12.34 -25 12 C-25.33 10.68 -25.66 9.36 -26 8 C-18.09226789 3.7419904 -9.18500383 -0.78059523 0 0 Z " fill="#FFB600" transform="translate(159,101)"/>
<path d="M0 0 C2.97 0.99 5.94 1.98 9 3 C9.36308526 9.45694279 8.24331742 14.130889 5.9140625 20.12109375 C5.42107162 21.4369194 5.42107162 21.4369194 4.91812134 22.77932739 C3.83227192 25.67001286 2.72856718 28.55353756 1.625 31.4375 C0.86021188 33.46487012 0.09689091 35.49279423 -0.66503906 37.52124023 C-1.86167755 40.7058652 -3.05949625 43.8900046 -4.26220703 47.07234192 C-8.8462516 59.20342548 -13.29564883 71.38334841 -17.75 83.5625 C-18.50676163 85.63021373 -19.26375464 87.6978428 -20.02099609 89.76538086 C-20.38095673 90.74823563 -20.74091736 91.73109039 -21.11178589 92.74372864 C-22.1343767 95.5268495 -23.16538396 98.30673914 -24.19726562 101.08642578 C-25.31447836 104.10259539 -26.39101722 107.12531487 -27.41210938 110.17529297 C-27.81751953 111.34334473 -28.22292969 112.51139648 -28.640625 113.71484375 C-28.96063477 114.68413818 -29.28064453 115.65343262 -29.61035156 116.65209961 C-31.51082015 119.86306348 -33.56879552 120.67679324 -37 122 C-40.375 122.1875 -40.375 122.1875 -43 122 C-41.64600978 115.22315837 -39.6894284 108.93941248 -37.28125 102.46875 C-36.91089127 101.45945435 -36.54053253 100.45015869 -36.15895081 99.41027832 C-34.94461578 96.10486898 -33.72229632 92.80247266 -32.5 89.5 C-31.65105306 87.19291368 -30.80267237 84.88561893 -29.95483398 82.578125 C-27.75098725 76.58382335 -25.54074633 70.59190141 -23.32879639 64.60058594 C-19.956544 55.46292976 -16.59452185 46.32150647 -13.23291016 37.17993164 C-12.08696731 34.06647616 -10.93825042 30.95405581 -9.7890625 27.84179688 C-6.38383475 18.60548185 -2.99646935 9.37896145 0 0 Z " fill="#FB345C" transform="translate(45,264)"/>
<path d="M0 0 C1.98 0.33 3.96 0.66 6 1 C4.78002135 7.23827992 3.04392967 13.04136753 0.75390625 18.96484375 C0.26898964 20.2416954 0.26898964 20.2416954 -0.22572327 21.54434204 C-1.29060358 24.34427558 -2.36408997 27.14082673 -3.4375 29.9375 C-4.18681541 31.90398031 -4.93550123 33.87070063 -5.68359375 35.83764648 C-7.6910638 41.11195034 -9.70555461 46.38354588 -11.72137451 51.65466309 C-15.23152021 60.83844682 -18.72875056 70.02715564 -22.22537231 79.21609497 C-23.48699377 82.52835346 -24.75194587 85.83932544 -26.01733398 89.15014648 C-26.79289505 91.18469913 -27.56837144 93.21928405 -28.34375 95.25390625 C-28.70026138 96.18417633 -29.05677277 97.11444641 -29.42408752 98.07290649 C-29.75013474 98.93000214 -30.07618195 99.78709778 -30.41210938 100.67016602 C-30.69614624 101.41379898 -30.98018311 102.15743195 -31.27282715 102.92359924 C-31.97627028 104.93224114 -32.51979886 106.92778875 -33 109 C-31.95328125 108.72027344 -30.9065625 108.44054687 -29.828125 108.15234375 C-22.7183635 106.37490338 -15.47369181 105.22342402 -8.26171875 103.94335938 C-1.63923464 102.74504066 4.86012682 101.35478424 11.35791016 99.59667969 C15.3817923 98.68794119 18.8898266 98.6685344 23 99 C25.35953094 101.35953094 25.49141413 102.77895617 26 106 C24.86804199 105.97131836 23.73608398 105.94263672 22.56982422 105.91308594 C17.90175373 105.91692723 13.47126427 106.5834461 8.8828125 107.390625 C8.02678436 107.53651062 7.17075623 107.68239624 6.28878784 107.83270264 C4.48136394 108.14227696 2.67449347 108.45509819 0.86816406 108.77099609 C-1.83132542 109.24237366 -4.532594 109.7021184 -7.234375 110.16015625 C-16.57728583 111.76333839 -25.85002881 113.50908655 -35.05953979 115.76837158 C-42.30662018 117.48508736 -47.47229669 117.82109462 -54 114 C-53.67 113.01 -53.34 112.02 -53 111 C-52.67 111.66 -52.34 112.32 -52 113 C-50.55989519 112.74337755 -49.1229313 112.46909179 -47.6875 112.1875 C-46.88699219 112.03667969 -46.08648437 111.88585937 -45.26171875 111.73046875 C-42.64217979 110.88443458 -41.76606853 110.08603967 -40 108 C-38.93722107 105.82804259 -38.93722107 105.82804259 -38.09326172 103.34057617 C-37.74734482 102.3865239 -37.40142792 101.43247162 -37.04502869 100.44950867 C-36.67696609 99.40785049 -36.3089035 98.36619232 -35.9296875 97.29296875 C-35.53572281 96.20003006 -35.14175812 95.10709137 -34.7358551 93.98103333 C-33.8853161 91.61864189 -33.03860372 89.25487002 -32.19528198 86.88989258 C-30.64536122 82.54353686 -29.08167535 78.2022226 -27.51678562 73.86123848 C-27.29183887 73.23721075 -27.06689211 72.61318302 -26.83512878 71.97024536 C-26.60944906 71.34423557 -26.38376934 70.71822578 -26.15125084 70.073246 C-25.46140036 68.15841085 -24.77264528 66.24318491 -24.08418274 64.32785034 C-19.95996748 52.8580522 -15.76734323 41.41396706 -11.53985596 29.98184204 C-10.45601511 27.05008284 -9.37513501 24.1172438 -8.29443359 21.18432617 C-7.63270361 19.39363738 -6.97076885 17.60302424 -6.30859375 15.8125 C-6.01569962 15.0169722 -5.72280548 14.2214444 -5.42103577 13.40180969 C-3.74090682 8.87232313 -1.94015677 4.42459766 0 0 Z " fill="#E67373" transform="translate(54,273)"/>
<path d="M0 0 C0.66 0 1.32 0 2 0 C2.2475 0.78375 2.495 1.5675 2.75 2.375 C4.24062337 5.50530909 4.99419751 5.54003879 8 7 C10.52603049 9.0654014 11.65586977 10.1071069 13 13 C13.43577446 17.80270128 13.05379634 22.51234202 12.6875 27.3125 C11.86521282 39.4153491 11.43695822 48.2664115 18.5625 58.375 C22.54901632 64.20192682 25.02539911 68.71803871 24 76 C22.84477521 78.90673927 21.28579444 81.4809745 19.625 84.125 C18.79981777 85.4788146 17.97939726 86.83554453 17.1640625 88.1953125 C16.79748535 88.78328613 16.4309082 89.37125977 16.05322266 89.97705078 C13.29664518 95.27167317 12.76096389 99.96454351 12.98046875 105.84765625 C13.01061557 107.35480095 13.03988616 108.86196338 13.06835938 110.36914062 C13.12419735 112.72196098 13.18788432 115.07387809 13.26733398 117.42602539 C13.34004524 119.71249645 13.38110912 121.99786446 13.41796875 124.28515625 C13.45004929 124.98423599 13.48212982 125.68331573 13.5151825 126.40357971 C13.55488252 130.24377437 13.15568375 131.81107026 10.68261719 134.81225586 C9.79735352 135.53421143 8.91208984 136.25616699 8 137 C7.42000244 137.49435547 6.84000488 137.98871094 6.24243164 138.49804688 C5.72028076 138.90087891 5.19812988 139.30371094 4.66015625 139.71875 C3.7774707 140.40517578 3.7774707 140.40517578 2.87695312 141.10546875 C2.27818359 141.56566406 1.67941406 142.02585938 1.0625 142.5 C-3.36224502 145.92282551 -7.72195123 149.39468257 -12 153 C-12.33 152.01 -12.66 151.02 -13 150 C-9.91861176 144.81452948 -5.16875031 141.31623193 -0.25 138 C4.84061331 134.48056364 6.6085838 131.99379285 8 126 C7.34 126 6.68 126 6 126 C5.34692027 120.47797768 4.7460163 114.95526537 4.22705078 109.41894531 C4.03662162 107.39015808 3.83069812 105.36283338 3.62109375 103.3359375 C2.99134815 92.5364704 7.95316437 84.27230326 14 75.6875 C16.16919669 72.22694207 16.63178345 69.78240761 15.91015625 65.75390625 C13.20923405 57.58158799 8.97261571 49.58906144 3.9375 42.625 C1.01426688 38.09743355 1.93157034 34.07157196 3 29 C3.7966617 25.39135914 4.60012241 21.78940683 5.4765625 18.19921875 C6.31173594 13.09468856 5.29976298 10.02842582 2.4375 5.8125 C0 2.20113314 0 2.20113314 0 0 Z " fill="#677471" transform="translate(292,88)"/>
<path d="M0 0 C1.98 0 3.96 0 6 0 C12.47197643 16.3662841 18.58064047 32.86901525 24.7199707 49.36199951 C26.39933068 53.87269422 28.08042459 58.38274293 29.76129818 62.89287376 C31.07069301 66.40632971 32.3798488 69.91987391 33.68812561 73.43374634 C34.04914824 74.40231347 34.04914824 74.40231347 34.41746426 75.39044762 C34.89164589 76.66480844 35.36425824 77.93975442 35.83521366 79.21531105 C37.09257255 82.61188213 38.38712645 85.98883358 39.73092651 89.35223389 C40.01398368 90.07265051 40.29704084 90.79306713 40.5886755 91.53531456 C41.13208446 92.91601361 41.68538883 94.29287386 42.25019932 95.66495705 C43.73838869 99.47963768 44.432599 102.09181481 43 106 C40.9375 107.8125 40.9375 107.8125 39 109 C36.09821808 102.71380785 33.58719005 96.35802091 31.26953125 89.8359375 C30.92132828 88.86524826 30.57312531 87.89455902 30.21437073 86.89445496 C29.07721285 83.72243915 27.94476195 80.54876636 26.8125 77.375 C25.20827785 72.8914804 23.60212389 68.40865348 21.99609375 63.92578125 C21.58679626 62.7821965 21.17749878 61.63861176 20.75579834 60.46037292 C17.87422645 52.41609625 14.96283145 44.38307017 12.03515625 36.35546875 C11.24434382 34.18377142 10.45357158 32.01205945 9.6628418 29.84033203 C8.52396735 26.71288487 7.38361835 23.58601898 6.23843384 20.46087646 C5.18336598 17.58091053 4.13407223 14.6989012 3.0859375 11.81640625 C2.77120987 10.96249802 2.45648224 10.10858978 2.13221741 9.22880554 C1.84930344 8.44761856 1.56638947 7.66643158 1.27490234 6.86157227 C1.02719086 6.18409439 0.77947937 5.50661652 0.52426147 4.80860901 C0 3 0 3 0 0 Z " fill="#E67373" transform="translate(155,314)"/>
<path d="M0 0 C3 1 3 1 4 3 C4.26431068 7.81552333 3.76999363 11.52150156 2.1484375 16.046875 C1.71966309 17.25657959 1.29088867 18.46628418 0.84912109 19.71264648 C0.3582553 21.05861633 -0.13313783 22.40439395 -0.625 23.75 C-1.1390174 25.17958623 -1.65250657 26.60936246 -2.16552734 28.03930664 C-4.0863221 33.36839633 -6.04204501 38.68447107 -8 44 C-8.42990234 45.16819275 -8.85980469 46.3363855 -9.30273438 47.53997803 C-12.47940904 56.16883623 -15.67088148 64.79215164 -18.87273407 73.41169739 C-19.62554836 75.43897669 -20.3774202 77.46660381 -21.12921143 79.4942627 C-22.55219116 83.33019637 -23.98260379 87.16331603 -25.4140625 90.99609375 C-25.8469458 92.16339523 -26.2798291 93.33069672 -26.72583008 94.53337097 C-27.32874878 96.14191704 -27.32874878 96.14191704 -27.94384766 97.78295898 C-28.29403961 98.72187485 -28.64423157 99.66079071 -29.0050354 100.62815857 C-30 103 -30 103 -32 106 C-32.433125 105.05125 -32.86625 104.1025 -33.3125 103.125 C-34.79302201 99.79958063 -34.79302201 99.79958063 -38 98 C-37.36312256 97.03888306 -37.36312256 97.03888306 -36.71337891 96.05834961 C-34.54846219 92.19401338 -33.09258529 88.22342164 -31.5859375 84.06640625 C-31.25860626 83.17619781 -30.93127502 82.28598938 -30.59402466 81.36880493 C-29.5164077 78.43503769 -28.44582244 75.49875323 -27.375 72.5625 C-26.62621516 70.52168421 -25.87685798 68.48107833 -25.12695312 66.44067383 C-23.55587099 62.16412338 -21.98730945 57.88666202 -20.42089844 53.60839844 C-16.83682231 43.8213507 -13.23831039 34.03963855 -9.63214111 24.26071167 C-8.50923593 21.21257104 -7.38999459 18.16310199 -6.27099609 15.11352539 C-5.58707173 13.2566151 -4.90299794 11.39975983 -4.21875 9.54296875 C-3.90600128 8.68788727 -3.59325256 7.83280579 -3.27102661 6.95181274 C-1.11382465 1.11382465 -1.11382465 1.11382465 0 0 Z " fill="#E77273" transform="translate(147,321)"/>
<path d="M0 0 C1.65 0 3.3 0 5 0 C12.17291381 18.70117234 19.1652421 37.46861744 26.125 56.25 C26.75565369 57.95014252 26.75565369 57.95014252 27.39904785 59.68463135 C33.35917732 75.75667877 39.22351759 91.86102901 45 108 C42.69 108 40.38 108 38 108 C37.69316284 107.17653076 37.69316284 107.17653076 37.38012695 106.33642578 C36.35901787 103.59874651 35.33601968 100.86177899 34.3125 98.125 C33.91458252 97.06071777 33.51666504 95.99643555 33.10668945 94.89990234 C30.74421202 88.59846795 28.35543372 82.30854227 25.9296875 76.03125 C20.24702812 61.3135296 14.68917244 46.56527722 9.4375 31.6875 C9.18978851 30.98788147 8.94207703 30.28826294 8.68685913 29.56744385 C0 4.98709765 0 4.98709765 0 0 Z " fill="#E67373" transform="translate(252,274)"/>
<path d="M0 0 C3 1 3 1 3.94921875 2.890625 C6.41063747 10.75674619 6.41063747 10.75674619 6 15 C3.525 14.505 3.525 14.505 1 14 C0.74532959 14.72960937 0.49065918 15.45921875 0.22827148 16.2109375 C-5.3459399 32.14076761 -11.05315861 48.01927357 -16.94528198 63.83447266 C-17.60356315 65.60290099 -18.25977347 67.37210164 -18.91384888 69.14208984 C-19.84127072 71.64918821 -20.77689752 74.15307289 -21.71484375 76.65625 C-21.98743011 77.39677612 -22.26001648 78.13730225 -22.54086304 78.90026855 C-24.30141085 83.56159351 -26.42741353 87.73043737 -29 92 C-31.37466723 88.28958246 -31.30816346 85.34174589 -31 81 C-30.05515403 77.55761616 -28.78016106 74.265246 -27.484375 70.94140625 C-27.11688644 69.97126587 -26.74939789 69.00112549 -26.37077332 68.00158691 C-25.17459804 64.85100899 -23.96249215 61.7068301 -22.75 58.5625 C-21.92539601 56.40008408 -21.10191496 54.23723961 -20.27954102 52.07397461 C-18.63481202 47.75053945 -16.98466376 43.42923399 -15.33056641 39.109375 C-13.24954744 33.66610436 -11.19908997 28.21206356 -9.16796875 22.75 C-8.88585541 21.99202621 -8.60374207 21.23405243 -8.31307983 20.45310974 C-7.26651173 17.63989691 -6.22068606 14.82641339 -5.17736816 12.01199341 C-4.48405163 10.14377538 -3.78706449 8.27692074 -3.08984375 6.41015625 C-2.70691162 5.38027588 -2.32397949 4.35039551 -1.92944336 3.28930664 C-1 1 -1 1 0 0 Z " fill="#697071" transform="translate(155,340)"/>
<path d="M0 0 C2.35953094 2.35953094 2.49141413 3.77895617 3 7 C1.86804199 6.97131836 0.73608398 6.94263672 -0.43017578 6.91308594 C-5.09824627 6.91692723 -9.52873573 7.5834461 -14.1171875 8.390625 C-14.97321564 8.53651062 -15.82924377 8.68239624 -16.71121216 8.83270264 C-18.51863606 9.14227696 -20.32550653 9.45509819 -22.13183594 9.77099609 C-24.83132542 10.24237366 -27.532594 10.7021184 -30.234375 11.16015625 C-39.57728583 12.76333839 -48.85002881 14.50908655 -58.05953979 16.76837158 C-65.30662018 18.48508736 -70.47229669 18.82109462 -77 15 C-76.67 14.01 -76.34 13.02 -76 12 C-75.67 12.66 -75.34 13.32 -75 14 C-70.20481627 12.96104353 -65.44832239 11.86048153 -60.703125 10.61328125 C-52.33305223 8.51177954 -43.84144725 7.10361013 -35.34521484 5.625 C-27.32925223 4.22425841 -19.40364461 2.7315098 -11.54541016 0.58129883 C-7.56336047 -0.32808735 -4.06881561 -0.32813029 0 0 Z " fill="#6A6F71" transform="translate(77,372)"/>
<path d="M0 0 C1.8125 0.1015625 1.8125 0.1015625 4 1 C5.5 3.8359375 5.5 3.8359375 7 7.375 C8.71313713 10.97673344 10.07864748 13.55600561 13.8046875 15.3515625 C15.85826447 15.7852696 17.92511244 16.16014215 20 16.4765625 C26.92341654 17.68455445 33.03929389 22.16649149 38 27 C38 27.99 38 28.98 38 30 C34.14747965 29.43605081 31.66074545 28.34178418 28.4375 26.1875 C20.63733138 21.37043158 11.3519168 17.3784983 2 19 C1.38382813 19.33386719 0.76765625 19.66773438 0.1328125 20.01171875 C-2.70832107 21.32821471 -5.00819048 21.22961905 -8.125 21.1875 C-9.17945312 21.18105469 -10.23390625 21.17460937 -11.3203125 21.16796875 C-14 21 -14 21 -16 20 C-15.67 18.68 -15.34 17.36 -15 16 C-12.73050898 15.32844651 -10.4596039 14.6626037 -8.1875 14 C-6.29064453 13.443125 -6.29064453 13.443125 -4.35546875 12.875 C-1 12 -1 12 2 12 C1.67 10.948125 1.34 9.89625 1 8.8125 C0.16033218 5.61126643 -0.19750904 3.2588992 0 0 Z " fill="#FFB706" transform="translate(106,215)"/>
<path d="M0 0 C2.0625 0.4375 2.0625 0.4375 4 1 C3.43742692 4.37543847 2.52058432 6.95883135 1 10 C1 10.99 1 11.98 1 13 C6.28 14.65 11.56 16.3 17 18 C17 19.32 17 20.64 17 22 C10.50595543 22.18914693 5.16384867 22.19159064 -1 20 C-10.76012215 18.7406294 -21.21363112 22.80531118 -29.30078125 28.203125 C-32 30 -32 30 -35 30 C-33.04500525 24.72151418 -29.00771536 21.98185532 -24.1484375 19.60546875 C-15.9123948 16.05967865 -15.9123948 16.05967865 -11.89453125 15.796875 C-8.67309344 15.23126828 -8.67309344 15.23126828 -6.69921875 11.875 C-6.0074196 10.59457634 -5.33733091 9.30222525 -4.6875 8 C-4.00460336 6.70796464 -3.32104353 5.41627951 -2.63671875 4.125 C-1.82654297 2.578125 -1.82654297 2.578125 -1 1 C-0.67 0.67 -0.34 0.34 0 0 Z " fill="#FFB706" transform="translate(203,214)"/>
<path d="M0 0 C1.8203125 0.5703125 1.8203125 0.5703125 4 2 C5.5546875 5.1171875 5.5546875 5.1171875 6.875 8.875 C7.32617188 10.10992187 7.77734375 11.34484375 8.2421875 12.6171875 C9 16 9 16 8.2890625 18.3671875 C6.20611497 21.0055877 4.26604341 21.30013356 1 22 C-5.48350725 22.60883017 -10.22167983 22.01477574 -16 19 C-16 17.68 -16 16.36 -16 15 C-10.72 14.34 -5.44 13.68 0 13 C-0.185625 11.040625 -0.37125 9.08125 -0.5625 7.0625 C-0.75358962 5.04544287 -0.90997602 3.02408755 -1 1 C-0.67 0.67 -0.34 0.34 0 0 Z " fill="#FFB807" transform="translate(92,205)"/>
<path d="M0 0 C0.66 0 1.32 0 2 0 C2.33 4.62 2.66 9.24 3 14 C4.65 13.67 6.3 13.34 8 13 C8.33 13.33 8.66 13.66 9 14 C10.68183948 14.23287008 12.3712416 14.41264166 14.0625 14.5625 C14.98160156 14.64628906 15.90070313 14.73007813 16.84765625 14.81640625 C17.55792969 14.87699219 18.26820313 14.93757812 19 15 C18.68359375 16.890625 18.68359375 16.890625 18 19 C12.50859531 22.27147514 7.3071462 22.75685754 1 22 C-1.70741572 21.28030721 -3.53087669 20.41843254 -6 19 C-7.31214268 15.06357195 -6.08020602 12.64760846 -4.6875 8.9375 C-4.46126953 8.30005859 -4.23503906 7.66261719 -4.00195312 7.00585938 C-2.9583198 4.15165756 -2.17328032 2.17328032 0 0 Z " fill="#FFB807" transform="translate(217,205)"/>
<path d="M0 0 C0.99 0.33 1.98 0.66 3 1 C3 7.93 3 14.86 3 22 C-11.76520913 21.246673 -11.76520913 21.246673 -17.875 16.5625 C-19 15 -19 15 -19 11 C-15.33827525 11.62678171 -12.1181005 12.64451846 -8.6875 14.0625 C-7.80449219 14.42472656 -6.92148438 14.78695312 -6.01171875 15.16015625 C-5.34785156 15.43730469 -4.68398437 15.71445313 -4 16 C-4.04640625 15.26394531 -4.0928125 14.52789062 -4.140625 13.76953125 C-4.43910806 5.69982847 -4.43910806 5.69982847 -2 1.8125 C-1.34 1.214375 -0.68 0.61625 0 0 Z " fill="#FFB705" transform="translate(82,193)"/>
<path d="M0 0 C4.94119746 1.23529937 7.27606774 2.66188566 10 7 C10.75 9.8125 10.75 9.8125 11 12 C11.66 12 12.32 12 13 12 C13.391875 11.030625 13.78375 10.06125 14.1875 9.0625 C16 6 16 6 18.6875 5.125 C19.8321875 5.063125 19.8321875 5.063125 21 5 C22 8 22 8 20.56640625 11.35546875 C19.90851193 12.6380304 19.24010257 13.91524057 18.5625 15.1875 C18.22412109 15.84169922 17.88574219 16.49589844 17.53710938 17.16992188 C16.70030902 18.78459299 15.85130254 20.39292763 15 22 C8.55969905 19.80168115 4.936226 15.4201143 1.62890625 9.578125 C-1.19755747 3.59267241 -1.19755747 3.59267241 0 0 Z " fill="#FFB706" transform="translate(60,169)"/>
<path d="M0 0 C0.99 0 1.98 0 3 0 C3.50636607 1.74816858 4.00484619 3.49862263 4.5 5.25 C4.7784375 6.22453125 5.056875 7.1990625 5.34375 8.203125 C6 11 6 11 6 15 C6.59167969 14.7834375 7.18335938 14.566875 7.79296875 14.34375 C15.64147627 11.57820738 15.64147627 11.57820738 20 12 C19.703125 13.87109375 19.703125 13.87109375 19 16 C12.49812452 20.12619021 5.48269498 21.49433577 -2 23 C-2.0582253 19.91674642 -2.09367134 16.83363495 -2.125 13.75 C-2.14175781 12.87730469 -2.15851563 12.00460938 -2.17578125 11.10546875 C-2.18222656 10.26113281 -2.18867188 9.41679687 -2.1953125 8.546875 C-2.20578613 7.77182617 -2.21625977 6.99677734 -2.22705078 6.19824219 C-1.97326556 3.74116461 -1.22444152 2.12688458 0 0 Z " fill="#FFB706" transform="translate(228,193)"/>
<path d="M0 0 C-0.33502262 7.70552027 -4.15779664 13.4398902 -8.88671875 19.36328125 C-11 21 -11 21 -13.5390625 21.14453125 C-17.13780301 19.4708313 -17.8044159 17.27114239 -19.375 13.6875 C-19.89835938 12.53636719 -20.42171875 11.38523438 -20.9609375 10.19921875 C-21.96380991 7.11142738 -22.22920961 5.92841112 -21 3 C-18.47021342 3.38215925 -17.29145802 3.66425968 -15.5859375 5.62890625 C-14.98652344 6.58603516 -14.98652344 6.58603516 -14.375 7.5625 C-13.21359192 9.46605303 -13.21359192 9.46605303 -12 11 C-11.34 11 -10.68 11 -10 11 C-9.7525 9.9275 -9.505 8.855 -9.25 7.75 C-7.40536415 2.21609246 -5.98038911 0 0 0 Z " fill="#FFB704" transform="translate(251,170)"/>
<path d="M0 0 C3.53958402 1.17986134 3.72660482 1.67777714 5.375 4.875 C9.06718386 12.57359614 13 23.35086232 13 32 C9.45034523 30.56323497 7.92912058 28.88698102 5.875 25.6875 C5.37742187 24.92824219 4.87984375 24.16898438 4.3671875 23.38671875 C0.03399119 15.82219604 -0.15138817 8.51137932 0 0 Z " fill="#687572" transform="translate(268,49)"/>
<path d="M0 0 C0.763125 0.226875 1.52625 0.45375 2.3125 0.6875 C2.73765028 5.80448731 1.68533083 8.35585485 -1.1875 12.5625 C-1.8371875 13.52929688 -2.486875 14.49609375 -3.15625 15.4921875 C-3.91421875 16.57886719 -3.91421875 16.57886719 -4.6875 17.6875 C-9.01612544 16.95510784 -10.71755939 14.97067082 -13.42578125 11.67578125 C-15.34188882 8.65628047 -15.54294936 6.22899074 -15.6875 2.6875 C-12.57551935 4.18586105 -9.6340385 5.88683758 -6.6875 7.6875 C-6.584375 6.924375 -6.48125 6.16125 -6.375 5.375 C-5.34731802 1.35769771 -4.35066643 -0.50589144 0 0 Z " fill="#FFB705" transform="translate(245.6875,154.3125)"/>
<path d="M0 0 C2.91517292 1.07401108 4.77810176 1.77810176 7 4 C7.125 7.125 7.125 7.125 7 10 C7.55429688 9.71125 8.10859375 9.4225 8.6796875 9.125 C9.76636719 8.568125 9.76636719 8.568125 10.875 8 C11.59429687 7.62875 12.31359375 7.2575 13.0546875 6.875 C15 6 15 6 17 6 C16.67566492 11.35152885 13.50295176 14.28280043 10 18 C8.26953125 17.86328125 8.26953125 17.86328125 6 17 C3.82421875 14.41796875 3.82421875 14.41796875 1.6875 11.1875 C0.96949219 10.12917969 0.25148438 9.07085937 -0.48828125 7.98046875 C-2 5 -2 5 -1.79296875 2.67578125 C-1 1 -1 1 0 0 Z " fill="#FFB705" transform="translate(64,153)"/>
<path d="M0 0 C0.66 0 1.32 0 2 0 C2.77076633 6.17614057 0.10956902 10.23954969 -2.8125 15.4375 C-3.71733591 17.08066136 -4.61972582 18.72517229 -5.51953125 20.37109375 C-5.9470166 21.15210449 -6.37450195 21.93311523 -6.81494141 22.73779297 C-8.39868745 25.76107085 -9.71894711 28.83779968 -11 32 C-11.33 32 -11.66 32 -12 32 C-13.4694638 20.57083714 -8.41165051 11.83077949 -2.1875 2.625 C-1.465625 1.75875 -0.74375 0.8925 0 0 Z " fill="#100F0A" transform="translate(308,161)"/>
<path d="M0 0 C0.66 0.33 1.32 0.66 2 1 C1.58306691 5.8642194 -0.32748692 7.89876673 -4 11 C-7.83119891 13.31468267 -10.51399978 14.39582355 -15 14 C-15 12.68 -15 11.36 -15 10 C-13.62304688 8.62792969 -13.62304688 8.62792969 -11.71875 7.421875 C-11.04199219 6.98359375 -10.36523438 6.5453125 -9.66796875 6.09375 C-8.59482422 5.42859375 -8.59482422 5.42859375 -7.5 4.75 C-6.78457031 4.29109375 -6.06914062 3.8321875 -5.33203125 3.359375 C-3.56268301 2.22699212 -1.78233165 1.11183546 0 0 Z " fill="#FFB807" transform="translate(252,187)"/>
<path d="M0 0 C4.46182436 1.31074365 7.99618757 3.07066011 11.875 5.625 C12.84179688 6.25664062 13.80859375 6.88828125 14.8046875 7.5390625 C15.52914062 8.02117187 16.25359375 8.50328125 17 9 C16.67 10.32 16.34 11.64 16 13 C10.05346197 12.79134954 6.71899467 11.80598249 2.34375 7.69921875 C0.41422811 5.25927101 0.07290681 3.06208612 0 0 Z " fill="#FFB705" transform="translate(58,188)"/>
<path d="M0 0 C3.32791006 0.60126106 3.90981621 0.89478558 6.25 3.625 C8.21887045 7.42210731 8.33722141 9.78473241 8 14 C5.51277859 13.65693498 4.20431829 13.18161626 2.3125 11.5 C0.380793 7.8205581 0.2542679 4.10335782 0 0 Z " fill="#FFB703" transform="translate(231,140)"/>
<path d="M0 0 C3 1 3 1 3.94921875 2.890625 C6.41063747 10.75674619 6.41063747 10.75674619 6 15 C-0.75 11.25 -0.75 11.25 -3 9 C-2.67582137 5.19090105 -2.14418558 3.21627837 0 0 Z " fill="#736E72" transform="translate(155,340)"/>
<path d="M0 0 C1.32 0 2.64 0 4 0 C3.62134678 5.58513495 3.26612338 8.98482505 -1 13 C-1.99 13 -2.98 13 -4 13 C-4.33884948 8.76438149 -4.19968258 6.39223364 -2.25 2.5625 C-1.5075 1.716875 -0.765 0.87125 0 0 Z " fill="#FFB807" transform="translate(76,141)"/>
<path d="M0 0 C2 1 2 1 3.25 3.125 C5.44318636 6.72809187 7.95996752 10.06158421 11 13 C11.66 13 12.32 13 13 13 C12.67 13.99 12.34 14.98 12 16 C6.97415961 14.52181165 4.69983068 13.17025016 2.0625 8.5625 C0.31042876 5.23300128 0 3.9189822 0 0 Z " fill="#7A8073" transform="translate(224,19)"/>
<path d="M0 0 C6.57092342 1.63199405 10.24875932 3.25591271 14 9 C14.8125 11.375 14.8125 11.375 15 13 C14.34 13 13.68 13 13 13 C11.66104368 11.33784732 10.32869858 9.67036393 9 8 C6.15665675 5.51207465 3.45518672 3.53563854 0 2 C0 1.34 0 0.68 0 0 Z " fill="#2A2613" transform="translate(19,223)"/>
<path d="M0 0 C4.875 0.875 4.875 0.875 6 2 C6.04063832 3.66617115 6.042721 5.33388095 6 7 C3 5.1875 3 5.1875 0 3 C0 2.01 0 1.02 0 0 Z " fill="#B2A1AB" transform="translate(155,348)"/>
</svg>
